<svg xmlns="http://www.w3.org/2000/svg" xmlns:xlink="http://www.w3.org/1999/xlink" xmlns:inkscape="http://www.inkscape.org/namespaces/inkscape" version="1.1" width="393.392" height="181.359" viewBox="0 0 393.392 181.359">
<text xml:space="preserve" transform="matrix(.85 0 -0 .85 9.484196 157.43534)" font-size="9.9626" font-family="Computer Modern" font-weight="bold"><tspan y="-159.491" x="63.228 71.50692 80.11461 90.99377 98.52549 106.356098 115.32243 123.93012 132.52785 143.87525 150.24135 154.96363 160.21392 166.58002 169.75809 174.84897 179.30225 185.03075 189.75302">COMEPHOREpredictors</tspan></text>
<text xml:space="preserve" transform="matrix(.85 0 -0 .85 8.007896 158.56635)" font-size="6.9738" font-family="Computer Modern"><tspan y="-151.951" x="53.386 56.54513 60.9456 64.92066 68.030979 70.283519 74.25858 76.9435 80.05381 83.596508 90.144908 94.76156 98.736629 101.84694 105.82201 110.75946 114.302158 118.70262 123.3123">spatio-temporalcube</tspan></text>
<text xml:space="preserve" transform="matrix(.85 0 -0 .85 8.007896 158.56635)" font-size="6.9738" font-family="Computer Modern" font-style="italic"><tspan y="-151.951" x="129.53202">C</tspan></text>
<text xml:space="preserve" transform="matrix(.85 0 -0 .85 8.007896 158.56635)" font-size="4.9813" font-family="Computer Modern" font-weight="bold" font-style="italic"><tspan y="-150.955" x="135.24701">s</tspan></text>
<text xml:space="preserve" transform="matrix(.85 0 -0 .85 8.007896 158.56635)" font-size="4.9813" font-family="Computer Modern" font-style="italic"><tspan y="-150.955" x="138.75801 141.03945">,t</tspan></text>
<text xml:space="preserve" transform="matrix(.85 0 -0 .85 8.007896 158.56635)" font-size="6.9738" font-family="Computer Modern"><tspan y="-151.951" x="147.031 151.00608 154.1164 158.09146 162.49193 166.8924 173.97777 177.08809 181.48856 187.71616 191.69123 195.66629 200.06676 204.04183">aroundthegauge</tspan></text>
<path transform="matrix(1,0,0,-1,65.906,146.24799)" d="M-12.04745 0H1.20482L11.32466 8.19218H-1.92763Z" fill="#ebf5f5"/>
<path transform="matrix(1,0,0,-1,65.906,146.24799)" stroke-width=".3985" stroke-linecap="butt" stroke-miterlimit="10" stroke-linejoin="miter" fill="none" stroke="#c6c6c6" d="M-12.04745 0H1.20482L11.32466 8.19218H-1.92763Z"/>
<path transform="matrix(1,0,0,-1,65.906,146.24799)" d="M1.20482 0H14.45712L24.57697 8.19218H11.32466Z" fill="#e0f0f0"/>
<path transform="matrix(1,0,0,-1,65.906,146.24799)" stroke-width=".3985" stroke-linecap="butt" stroke-miterlimit="10" stroke-linejoin="miter" fill="none" stroke="#c6c6c6" d="M1.20482 0H14.45712L24.57697 8.19218H11.32466Z"/>
<path transform="matrix(1,0,0,-1,65.906,146.24799)" d="M14.45712 0H27.70943L37.82927 8.19218H24.57697Z" fill="#d6ebeb"/>
<path transform="matrix(1,0,0,-1,65.906,146.24799)" stroke-width=".3985" stroke-linecap="butt" stroke-miterlimit="10" stroke-linejoin="miter" fill="none" stroke="#c6c6c6" d="M14.45712 0H27.70943L37.82927 8.19218H24.57697Z"/>
<path transform="matrix(1,0,0,-1,65.906,146.24799)" d="M27.70943 0H40.96172L51.08157 8.19218H37.82927Z" fill="#d1e8e8"/>
<path transform="matrix(1,0,0,-1,65.906,146.24799)" stroke-width=".3985" stroke-linecap="butt" stroke-miterlimit="10" stroke-linejoin="miter" fill="none" stroke="#c6c6c6" d="M27.70943 0H40.96172L51.08157 8.19218H37.82927Z"/>
<path transform="matrix(1,0,0,-1,65.906,146.24799)" d="M40.96172 0H54.21404L64.33386 8.19218H51.08157Z" fill="#e0f0f0"/>
<path transform="matrix(1,0,0,-1,65.906,146.24799)" stroke-width=".3985" stroke-linecap="butt" stroke-miterlimit="10" stroke-linejoin="miter" fill="none" stroke="#c6c6c6" d="M40.96172 0H54.21404L64.33386 8.19218H51.08157Z"/>
<path transform="matrix(1,0,0,-1,65.906,146.24799)" d="M-1.92763 8.19218H11.32466L21.44449 16.38438H8.1922Z" fill="#e6f2f2"/>
<path transform="matrix(1,0,0,-1,65.906,146.24799)" stroke-width=".3985" stroke-linecap="butt" stroke-miterlimit="10" stroke-linejoin="miter" fill="none" stroke="#c6c6c6" d="M-1.92763 8.19218H11.32466L21.44449 16.38438H8.1922Z"/>
<path transform="matrix(1,0,0,-1,65.906,146.24799)" d="M11.32466 8.19218H24.57697L34.6968 16.38438H21.44449Z" fill="#d1e8e8"/>
<path transform="matrix(1,0,0,-1,65.906,146.24799)" stroke-width=".3985" stroke-linecap="butt" stroke-miterlimit="10" stroke-linejoin="miter" fill="none" stroke="#c6c6c6" d="M11.32466 8.19218H24.57697L34.6968 16.38438H21.44449Z"/>
<path transform="matrix(1,0,0,-1,65.906,146.24799)" d="M24.57697 8.19218H37.82927L47.9491 16.38438H34.6968Z" fill="#b8dbdb"/>
<path transform="matrix(1,0,0,-1,65.906,146.24799)" stroke-width=".3985" stroke-linecap="butt" stroke-miterlimit="10" stroke-linejoin="miter" fill="none" stroke="#c6c6c6" d="M24.57697 8.19218H37.82927L47.9491 16.38438H34.6968Z"/>
<path transform="matrix(1,0,0,-1,65.906,146.24799)" d="M37.82927 8.19218H51.08157L61.20142 16.38438H47.9491Z" fill="#a6d2d2"/>
<path transform="matrix(1,0,0,-1,65.906,146.24799)" stroke-width=".3985" stroke-linecap="butt" stroke-miterlimit="10" stroke-linejoin="miter" fill="none" stroke="#c6c6c6" d="M37.82927 8.19218H51.08157L61.20142 16.38438H47.9491Z"/>
<path transform="matrix(1,0,0,-1,65.906,146.24799)" d="M51.08157 8.19218H64.33386L74.45372 16.38438H61.20142Z" fill="#cce6e6"/>
<path transform="matrix(1,0,0,-1,65.906,146.24799)" stroke-width=".3985" stroke-linecap="butt" stroke-miterlimit="10" stroke-linejoin="miter" fill="none" stroke="#c6c6c6" d="M51.08157 8.19218H64.33386L74.45372 16.38438H61.20142Z"/>
<path transform="matrix(1,0,0,-1,65.906,146.24799)" d="M8.1922 16.38438H21.44449L31.56433 24.57657H18.31204Z" fill="#ebf5f5"/>
<path transform="matrix(1,0,0,-1,65.906,146.24799)" stroke-width=".3985" stroke-linecap="butt" stroke-miterlimit="10" stroke-linejoin="miter" fill="none" stroke="#c6c6c6" d="M8.1922 16.38438H21.44449L31.56433 24.57657H18.31204Z"/>
<path transform="matrix(1,0,0,-1,65.906,146.24799)" d="M21.44449 16.38438H34.6968L44.81664 24.57657H31.56433Z" fill="#d6ebeb"/>
<path transform="matrix(1,0,0,-1,65.906,146.24799)" stroke-width=".3985" stroke-linecap="butt" stroke-miterlimit="10" stroke-linejoin="miter" fill="none" stroke="#c6c6c6" d="M21.44449 16.38438H34.6968L44.81664 24.57657H31.56433Z"/>
<path transform="matrix(1,0,0,-1,65.906,146.24799)" d="M34.6968 16.38438H47.9491L58.06894 24.57657H44.81664Z" fill="#99cccc"/>
<path transform="matrix(1,0,0,-1,65.906,146.24799)" stroke-width=".3985" stroke-linecap="butt" stroke-miterlimit="10" stroke-linejoin="miter" fill="none" stroke="#c6c6c6" d="M34.6968 16.38438H47.9491L58.06894 24.57657H44.81664Z"/>
<path transform="matrix(1,0,0,-1,65.906,146.24799)" d="M47.9491 16.38438H61.20142L71.32124 24.57657H58.06894Z" fill="#b3d9d9"/>
<path transform="matrix(1,0,0,-1,65.906,146.24799)" stroke-width=".3985" stroke-linecap="butt" stroke-miterlimit="10" stroke-linejoin="miter" fill="none" stroke="#c6c6c6" d="M47.9491 16.38438H61.20142L71.32124 24.57657H58.06894Z"/>
<path transform="matrix(1,0,0,-1,65.906,146.24799)" d="M61.20142 16.38438H74.45372L84.57353 24.57657H71.32124Z" fill="#d6ebeb"/>
<path transform="matrix(1,0,0,-1,65.906,146.24799)" stroke-width=".3985" stroke-linecap="butt" stroke-miterlimit="10" stroke-linejoin="miter" fill="none" stroke="#c6c6c6" d="M61.20142 16.38438H74.45372L84.57353 24.57657H71.32124Z"/>
<path transform="matrix(1,0,0,-1,65.906,146.24799)" d="M18.31204 24.57657H31.56433L41.68419 32.76878H28.43188Z" fill="#f0f7f7"/>
<path transform="matrix(1,0,0,-1,65.906,146.24799)" stroke-width=".3985" stroke-linecap="butt" stroke-miterlimit="10" stroke-linejoin="miter" fill="none" stroke="#c6c6c6" d="M18.31204 24.57657H31.56433L41.68419 32.76878H28.43188Z"/>
<path transform="matrix(1,0,0,-1,65.906,146.24799)" d="M31.56433 24.57657H44.81664L54.93648 32.76878H41.68419Z" fill="#e6f2f2"/>
<path transform="matrix(1,0,0,-1,65.906,146.24799)" stroke-width=".3985" stroke-linecap="butt" stroke-miterlimit="10" stroke-linejoin="miter" fill="none" stroke="#c6c6c6" d="M31.56433 24.57657H44.81664L54.93648 32.76878H41.68419Z"/>
<path transform="matrix(1,0,0,-1,65.906,146.24799)" d="M44.81664 24.57657H58.06894L68.18878 32.76878H54.93648Z" fill="#d1e8e8"/>
<path transform="matrix(1,0,0,-1,65.906,146.24799)" stroke-width=".3985" stroke-linecap="butt" stroke-miterlimit="10" stroke-linejoin="miter" fill="none" stroke="#c6c6c6" d="M44.81664 24.57657H58.06894L68.18878 32.76878H54.93648Z"/>
<path transform="matrix(1,0,0,-1,65.906,146.24799)" d="M58.06894 24.57657H71.32124L81.44109 32.76878H68.18878Z" fill="#c7e3e3"/>
<path transform="matrix(1,0,0,-1,65.906,146.24799)" stroke-width=".3985" stroke-linecap="butt" stroke-miterlimit="10" stroke-linejoin="miter" fill="none" stroke="#c6c6c6" d="M58.06894 24.57657H71.32124L81.44109 32.76878H68.18878Z"/>
<path transform="matrix(1,0,0,-1,65.906,146.24799)" d="M71.32124 24.57657H84.57353L94.69339 32.76878H81.44109Z" fill="#e0f0f0"/>
<path transform="matrix(1,0,0,-1,65.906,146.24799)" stroke-width=".3985" stroke-linecap="butt" stroke-miterlimit="10" stroke-linejoin="miter" fill="none" stroke="#c6c6c6" d="M71.32124 24.57657H84.57353L94.69339 32.76878H81.44109Z"/>
<path transform="matrix(1,0,0,-1,65.906,146.24799)" d="M28.43188 32.76878H41.68419L51.80402 40.96098H38.55171Z" fill="#f5fafa"/>
<path transform="matrix(1,0,0,-1,65.906,146.24799)" stroke-width=".3985" stroke-linecap="butt" stroke-miterlimit="10" stroke-linejoin="miter" fill="none" stroke="#c6c6c6" d="M28.43188 32.76878H41.68419L51.80402 40.96098H38.55171Z"/>
<path transform="matrix(1,0,0,-1,65.906,146.24799)" d="M41.68419 32.76878H54.93648L65.05632 40.96098H51.80402Z" fill="#ebf5f5"/>
<path transform="matrix(1,0,0,-1,65.906,146.24799)" stroke-width=".3985" stroke-linecap="butt" stroke-miterlimit="10" stroke-linejoin="miter" fill="none" stroke="#c6c6c6" d="M41.68419 32.76878H54.93648L65.05632 40.96098H51.80402Z"/>
<path transform="matrix(1,0,0,-1,65.906,146.24799)" d="M54.93648 32.76878H68.18878L78.30862 40.96098H65.05632Z" fill="#e0f0f0"/>
<path transform="matrix(1,0,0,-1,65.906,146.24799)" stroke-width=".3985" stroke-linecap="butt" stroke-miterlimit="10" stroke-linejoin="miter" fill="none" stroke="#c6c6c6" d="M54.93648 32.76878H68.18878L78.30862 40.96098H65.05632Z"/>
<path transform="matrix(1,0,0,-1,65.906,146.24799)" d="M68.18878 32.76878H81.44109L91.56093 40.96098H78.30862Z" fill="#d6ebeb"/>
<path transform="matrix(1,0,0,-1,65.906,146.24799)" stroke-width=".3985" stroke-linecap="butt" stroke-miterlimit="10" stroke-linejoin="miter" fill="none" stroke="#c6c6c6" d="M68.18878 32.76878H81.44109L91.56093 40.96098H78.30862Z"/>
<path transform="matrix(1,0,0,-1,65.906,146.24799)" d="M81.44109 32.76878H94.69339L104.81322 40.96098H91.56093Z" fill="#e6f2f2"/>
<path transform="matrix(1,0,0,-1,65.906,146.24799)" stroke-width=".3985" stroke-linecap="butt" stroke-miterlimit="10" stroke-linejoin="miter" fill="none" stroke="#c6c6c6" d="M81.44109 32.76878H94.69339L104.81322 40.96098H91.56093Z"/>
<path transform="matrix(1,0,0,-1,65.906,146.24799)" stroke-width=".3487" stroke-linecap="butt" stroke-miterlimit="10" stroke-linejoin="miter" fill="none" stroke="#004646" d="M-12.04745 0 38.55171 40.96098"/>
<path transform="matrix(1,0,0,-1,65.906,146.24799)" stroke-width=".3487" stroke-linecap="butt" stroke-miterlimit="10" stroke-linejoin="miter" fill="none" stroke="#004646" d="M1.20482 0 51.80402 40.96098"/>
<path transform="matrix(1,0,0,-1,65.906,146.24799)" stroke-width=".3487" stroke-linecap="butt" stroke-miterlimit="10" stroke-linejoin="miter" fill="none" stroke="#004646" d="M14.45712 0 65.05632 40.96098"/>
<path transform="matrix(1,0,0,-1,65.906,146.24799)" stroke-width=".3487" stroke-linecap="butt" stroke-miterlimit="10" stroke-linejoin="miter" fill="none" stroke="#004646" d="M27.70943 0 78.30862 40.96098"/>
<path transform="matrix(1,0,0,-1,65.906,146.24799)" stroke-width=".3487" stroke-linecap="butt" stroke-miterlimit="10" stroke-linejoin="miter" fill="none" stroke="#004646" d="M40.96172 0 91.56093 40.96098"/>
<path transform="matrix(1,0,0,-1,65.906,146.24799)" stroke-width=".3487" stroke-linecap="butt" stroke-miterlimit="10" stroke-linejoin="miter" fill="none" stroke="#004646" d="M54.21404 0 104.81322 40.96098"/>
<path transform="matrix(1,0,0,-1,65.906,146.24799)" stroke-width=".3487" stroke-linecap="butt" stroke-miterlimit="10" stroke-linejoin="miter" fill="none" stroke="#004646" d="M-12.04745 0H54.21404"/>
<path transform="matrix(1,0,0,-1,65.906,146.24799)" stroke-width=".3487" stroke-linecap="butt" stroke-miterlimit="10" stroke-linejoin="miter" fill="none" stroke="#004646" d="M-1.92763 8.19218H64.33386"/>
<path transform="matrix(1,0,0,-1,65.906,146.24799)" stroke-width=".3487" stroke-linecap="butt" stroke-miterlimit="10" stroke-linejoin="miter" fill="none" stroke="#004646" d="M8.1922 16.38438H74.45372"/>
<path transform="matrix(1,0,0,-1,65.906,146.24799)" stroke-width=".3487" stroke-linecap="butt" stroke-miterlimit="10" stroke-linejoin="miter" fill="none" stroke="#004646" d="M18.31204 24.57657H84.57353"/>
<path transform="matrix(1,0,0,-1,65.906,146.24799)" stroke-width=".3487" stroke-linecap="butt" stroke-miterlimit="10" stroke-linejoin="miter" fill="none" stroke="#004646" d="M28.43188 32.76878H94.69339"/>
<path transform="matrix(1,0,0,-1,65.906,146.24799)" stroke-width=".3487" stroke-linecap="butt" stroke-miterlimit="10" stroke-linejoin="miter" fill="none" stroke="#004646" d="M38.55171 40.96098H104.81322"/>
<path transform="matrix(1,0,0,-1,65.906,146.24799)" stroke-width=".59776" stroke-linecap="butt" stroke-miterlimit="10" stroke-linejoin="miter" fill="none" stroke="#404040" d="M-12.04745 0H54.21404L104.81322 40.96098H38.55171Z"/>
<path transform="matrix(1,0,0,-1,65.906,146.24799)" stroke-width=".89664" stroke-linecap="butt" stroke-dasharray="2.98883,2.98883" stroke-miterlimit="10" stroke-linejoin="miter" fill="none" stroke="#ff4040" d="M11.32466 8.19218H51.08157L81.44109 32.76878H41.68419Z"/>
<path transform="matrix(1,0,0,-1,65.906,146.24799)" d="M0 32.52834H13.25229L23.37212 40.72054H10.11981Z" fill="#ebf5f5"/>
<path transform="matrix(1,0,0,-1,65.906,146.24799)" stroke-width=".3985" stroke-linecap="butt" stroke-miterlimit="10" stroke-linejoin="miter" fill="none" stroke="#c6c6c6" d="M0 32.52834H13.25229L23.37212 40.72054H10.11981Z"/>
<path transform="matrix(1,0,0,-1,65.906,146.24799)" d="M13.25229 32.52834H26.50458L36.62444 40.72054H23.37212Z" fill="#e0f0f0"/>
<path transform="matrix(1,0,0,-1,65.906,146.24799)" stroke-width=".3985" stroke-linecap="butt" stroke-miterlimit="10" stroke-linejoin="miter" fill="none" stroke="#c6c6c6" d="M13.25229 32.52834H26.50458L36.62444 40.72054H23.37212Z"/>
<path transform="matrix(1,0,0,-1,65.906,146.24799)" d="M26.50458 32.52834H39.7569L49.87672 40.72054H36.62444Z" fill="#d6ebeb"/>
<path transform="matrix(1,0,0,-1,65.906,146.24799)" stroke-width=".3985" stroke-linecap="butt" stroke-miterlimit="10" stroke-linejoin="miter" fill="none" stroke="#c6c6c6" d="M26.50458 32.52834H39.7569L49.87672 40.72054H36.62444Z"/>
<path transform="matrix(1,0,0,-1,65.906,146.24799)" d="M39.7569 32.52834H53.00919L63.12903 40.72054H49.87672Z" fill="#d1e8e8"/>
<path transform="matrix(1,0,0,-1,65.906,146.24799)" stroke-width=".3985" stroke-linecap="butt" stroke-miterlimit="10" stroke-linejoin="miter" fill="none" stroke="#c6c6c6" d="M39.7569 32.52834H53.00919L63.12903 40.72054H49.87672Z"/>
<path transform="matrix(1,0,0,-1,65.906,146.24799)" d="M53.00919 32.52834H66.26149L76.38133 40.72054H63.12903Z" fill="#e0f0f0"/>
<path transform="matrix(1,0,0,-1,65.906,146.24799)" stroke-width=".3985" stroke-linecap="butt" stroke-miterlimit="10" stroke-linejoin="miter" fill="none" stroke="#c6c6c6" d="M53.00919 32.52834H66.26149L76.38133 40.72054H63.12903Z"/>
<path transform="matrix(1,0,0,-1,65.906,146.24799)" d="M10.11981 40.72054H23.37212L33.49196 48.91272H20.23967Z" fill="#e6f2f2"/>
<path transform="matrix(1,0,0,-1,65.906,146.24799)" stroke-width=".3985" stroke-linecap="butt" stroke-miterlimit="10" stroke-linejoin="miter" fill="none" stroke="#c6c6c6" d="M10.11981 40.72054H23.37212L33.49196 48.91272H20.23967Z"/>
<path transform="matrix(1,0,0,-1,65.906,146.24799)" d="M23.37212 40.72054H36.62444L46.74425 48.91272H33.49196Z" fill="#d1e8e8"/>
<path transform="matrix(1,0,0,-1,65.906,146.24799)" stroke-width=".3985" stroke-linecap="butt" stroke-miterlimit="10" stroke-linejoin="miter" fill="none" stroke="#c6c6c6" d="M23.37212 40.72054H36.62444L46.74425 48.91272H33.49196Z"/>
<path transform="matrix(1,0,0,-1,65.906,146.24799)" d="M36.62444 40.72054H49.87672L59.99657 48.91272H46.74425Z" fill="#b8dbdb"/>
<path transform="matrix(1,0,0,-1,65.906,146.24799)" stroke-width=".3985" stroke-linecap="butt" stroke-miterlimit="10" stroke-linejoin="miter" fill="none" stroke="#c6c6c6" d="M36.62444 40.72054H49.87672L59.99657 48.91272H46.74425Z"/>
<path transform="matrix(1,0,0,-1,65.906,146.24799)" d="M49.87672 40.72054H63.12903L73.24887 48.91272H59.99657Z" fill="#a6d2d2"/>
<path transform="matrix(1,0,0,-1,65.906,146.24799)" stroke-width=".3985" stroke-linecap="butt" stroke-miterlimit="10" stroke-linejoin="miter" fill="none" stroke="#c6c6c6" d="M49.87672 40.72054H63.12903L73.24887 48.91272H59.99657Z"/>
<path transform="matrix(1,0,0,-1,65.906,146.24799)" d="M63.12903 40.72054H76.38133L86.50117 48.91272H73.24887Z" fill="#cce6e6"/>
<path transform="matrix(1,0,0,-1,65.906,146.24799)" stroke-width=".3985" stroke-linecap="butt" stroke-miterlimit="10" stroke-linejoin="miter" fill="none" stroke="#c6c6c6" d="M63.12903 40.72054H76.38133L86.50117 48.91272H73.24887Z"/>
<path transform="matrix(1,0,0,-1,65.906,146.24799)" d="M20.23967 48.91272H33.49196L43.61179 57.10492H30.3595Z" fill="#ebf5f5"/>
<path transform="matrix(1,0,0,-1,65.906,146.24799)" stroke-width=".3985" stroke-linecap="butt" stroke-miterlimit="10" stroke-linejoin="miter" fill="none" stroke="#c6c6c6" d="M20.23967 48.91272H33.49196L43.61179 57.10492H30.3595Z"/>
<path transform="matrix(1,0,0,-1,65.906,146.24799)" d="M33.49196 48.91272H46.74425L56.8641 57.10492H43.61179Z" fill="#d6ebeb"/>
<path transform="matrix(1,0,0,-1,65.906,146.24799)" stroke-width=".3985" stroke-linecap="butt" stroke-miterlimit="10" stroke-linejoin="miter" fill="none" stroke="#c6c6c6" d="M33.49196 48.91272H46.74425L56.8641 57.10492H43.61179Z"/>
<path transform="matrix(1,0,0,-1,65.906,146.24799)" d="M46.74425 48.91272H59.99657L70.1164 57.10492H56.8641Z" fill="#99cccc"/>
<path transform="matrix(1,0,0,-1,65.906,146.24799)" stroke-width=".3985" stroke-linecap="butt" stroke-miterlimit="10" stroke-linejoin="miter" fill="none" stroke="#c6c6c6" d="M46.74425 48.91272H59.99657L70.1164 57.10492H56.8641Z"/>
<path transform="matrix(1,0,0,-1,65.906,146.24799)" d="M59.99657 48.91272H73.24887L83.36871 57.10492H70.1164Z" fill="#b3d9d9"/>
<path transform="matrix(1,0,0,-1,65.906,146.24799)" stroke-width=".3985" stroke-linecap="butt" stroke-miterlimit="10" stroke-linejoin="miter" fill="none" stroke="#c6c6c6" d="M59.99657 48.91272H73.24887L83.36871 57.10492H70.1164Z"/>
<path transform="matrix(1,0,0,-1,65.906,146.24799)" d="M73.24887 48.91272H86.50117L96.621 57.10492H83.36871Z" fill="#d6ebeb"/>
<path transform="matrix(1,0,0,-1,65.906,146.24799)" stroke-width=".3985" stroke-linecap="butt" stroke-miterlimit="10" stroke-linejoin="miter" fill="none" stroke="#c6c6c6" d="M73.24887 48.91272H86.50117L96.621 57.10492H83.36871Z"/>
<path transform="matrix(1,0,0,-1,65.906,146.24799)" d="M30.3595 57.10492H43.61179L53.73164 65.29712H40.47935Z" fill="#f0f7f7"/>
<path transform="matrix(1,0,0,-1,65.906,146.24799)" stroke-width=".3985" stroke-linecap="butt" stroke-miterlimit="10" stroke-linejoin="miter" fill="none" stroke="#c6c6c6" d="M30.3595 57.10492H43.61179L53.73164 65.29712H40.47935Z"/>
<path transform="matrix(1,0,0,-1,65.906,146.24799)" d="M43.61179 57.10492H56.8641L66.98393 65.29712H53.73164Z" fill="#e6f2f2"/>
<path transform="matrix(1,0,0,-1,65.906,146.24799)" stroke-width=".3985" stroke-linecap="butt" stroke-miterlimit="10" stroke-linejoin="miter" fill="none" stroke="#c6c6c6" d="M43.61179 57.10492H56.8641L66.98393 65.29712H53.73164Z"/>
<path transform="matrix(1,0,0,-1,65.906,146.24799)" d="M56.8641 57.10492H70.1164L80.23625 65.29712H66.98393Z" fill="#d1e8e8"/>
<path transform="matrix(1,0,0,-1,65.906,146.24799)" stroke-width=".3985" stroke-linecap="butt" stroke-miterlimit="10" stroke-linejoin="miter" fill="none" stroke="#c6c6c6" d="M56.8641 57.10492H70.1164L80.23625 65.29712H66.98393Z"/>
<path transform="matrix(1,0,0,-1,65.906,146.24799)" d="M70.1164 57.10492H83.36871L93.48854 65.29712H80.23625Z" fill="#c7e3e3"/>
<path transform="matrix(1,0,0,-1,65.906,146.24799)" stroke-width=".3985" stroke-linecap="butt" stroke-miterlimit="10" stroke-linejoin="miter" fill="none" stroke="#c6c6c6" d="M70.1164 57.10492H83.36871L93.48854 65.29712H80.23625Z"/>
<path transform="matrix(1,0,0,-1,65.906,146.24799)" d="M83.36871 57.10492H96.621L106.74084 65.29712H93.48854Z" fill="#e0f0f0"/>
<path transform="matrix(1,0,0,-1,65.906,146.24799)" stroke-width=".3985" stroke-linecap="butt" stroke-miterlimit="10" stroke-linejoin="miter" fill="none" stroke="#c6c6c6" d="M83.36871 57.10492H96.621L106.74084 65.29712H93.48854Z"/>
<path transform="matrix(1,0,0,-1,65.906,146.24799)" d="M40.47935 65.29712H53.73164L63.85149 73.48932H50.59917Z" fill="#f5fafa"/>
<path transform="matrix(1,0,0,-1,65.906,146.24799)" stroke-width=".3985" stroke-linecap="butt" stroke-miterlimit="10" stroke-linejoin="miter" fill="none" stroke="#c6c6c6" d="M40.47935 65.29712H53.73164L63.85149 73.48932H50.59917Z"/>
<path transform="matrix(1,0,0,-1,65.906,146.24799)" d="M53.73164 65.29712H66.98393L77.10379 73.48932H63.85149Z" fill="#ebf5f5"/>
<path transform="matrix(1,0,0,-1,65.906,146.24799)" stroke-width=".3985" stroke-linecap="butt" stroke-miterlimit="10" stroke-linejoin="miter" fill="none" stroke="#c6c6c6" d="M53.73164 65.29712H66.98393L77.10379 73.48932H63.85149Z"/>
<path transform="matrix(1,0,0,-1,65.906,146.24799)" d="M66.98393 65.29712H80.23625L90.35608 73.48932H77.10379Z" fill="#e0f0f0"/>
<path transform="matrix(1,0,0,-1,65.906,146.24799)" stroke-width=".3985" stroke-linecap="butt" stroke-miterlimit="10" stroke-linejoin="miter" fill="none" stroke="#c6c6c6" d="M66.98393 65.29712H80.23625L90.35608 73.48932H77.10379Z"/>
<path transform="matrix(1,0,0,-1,65.906,146.24799)" d="M80.23625 65.29712H93.48854L103.6084 73.48932H90.35608Z" fill="#d6ebeb"/>
<path transform="matrix(1,0,0,-1,65.906,146.24799)" stroke-width=".3985" stroke-linecap="butt" stroke-miterlimit="10" stroke-linejoin="miter" fill="none" stroke="#c6c6c6" d="M80.23625 65.29712H93.48854L103.6084 73.48932H90.35608Z"/>
<path transform="matrix(1,0,0,-1,65.906,146.24799)" d="M93.48854 65.29712H106.74084L116.86069 73.48932H103.6084Z" fill="#e6f2f2"/>
<path transform="matrix(1,0,0,-1,65.906,146.24799)" stroke-width=".3985" stroke-linecap="butt" stroke-miterlimit="10" stroke-linejoin="miter" fill="none" stroke="#c6c6c6" d="M93.48854 65.29712H106.74084L116.86069 73.48932H103.6084Z"/>
<path transform="matrix(1,0,0,-1,65.906,146.24799)" stroke-width=".3487" stroke-linecap="butt" stroke-miterlimit="10" stroke-linejoin="miter" fill="none" stroke="#004646" d="M0 32.52834 50.59917 73.48932"/>
<path transform="matrix(1,0,0,-1,65.906,146.24799)" stroke-width=".3487" stroke-linecap="butt" stroke-miterlimit="10" stroke-linejoin="miter" fill="none" stroke="#004646" d="M13.25229 32.52834 63.85149 73.48932"/>
<path transform="matrix(1,0,0,-1,65.906,146.24799)" stroke-width=".3487" stroke-linecap="butt" stroke-miterlimit="10" stroke-linejoin="miter" fill="none" stroke="#004646" d="M26.50458 32.52834 77.10379 73.48932"/>
<path transform="matrix(1,0,0,-1,65.906,146.24799)" stroke-width=".3487" stroke-linecap="butt" stroke-miterlimit="10" stroke-linejoin="miter" fill="none" stroke="#004646" d="M39.7569 32.52834 90.35608 73.48932"/>
<path transform="matrix(1,0,0,-1,65.906,146.24799)" stroke-width=".3487" stroke-linecap="butt" stroke-miterlimit="10" stroke-linejoin="miter" fill="none" stroke="#004646" d="M53.00919 32.52834 103.6084 73.48932"/>
<path transform="matrix(1,0,0,-1,65.906,146.24799)" stroke-width=".3487" stroke-linecap="butt" stroke-miterlimit="10" stroke-linejoin="miter" fill="none" stroke="#004646" d="M66.26149 32.52834 116.86069 73.48932"/>
<path transform="matrix(1,0,0,-1,65.906,146.24799)" stroke-width=".3487" stroke-linecap="butt" stroke-miterlimit="10" stroke-linejoin="miter" fill="none" stroke="#004646" d="M0 32.52834H66.26149"/>
<path transform="matrix(1,0,0,-1,65.906,146.24799)" stroke-width=".3487" stroke-linecap="butt" stroke-miterlimit="10" stroke-linejoin="miter" fill="none" stroke="#004646" d="M10.11981 40.72054H76.38133"/>
<path transform="matrix(1,0,0,-1,65.906,146.24799)" stroke-width=".3487" stroke-linecap="butt" stroke-miterlimit="10" stroke-linejoin="miter" fill="none" stroke="#004646" d="M20.23967 48.91272H86.50117"/>
<path transform="matrix(1,0,0,-1,65.906,146.24799)" stroke-width=".3487" stroke-linecap="butt" stroke-miterlimit="10" stroke-linejoin="miter" fill="none" stroke="#004646" d="M30.3595 57.10492H96.621"/>
<path transform="matrix(1,0,0,-1,65.906,146.24799)" stroke-width=".3487" stroke-linecap="butt" stroke-miterlimit="10" stroke-linejoin="miter" fill="none" stroke="#004646" d="M40.47935 65.29712H106.74084"/>
<path transform="matrix(1,0,0,-1,65.906,146.24799)" stroke-width=".3487" stroke-linecap="butt" stroke-miterlimit="10" stroke-linejoin="miter" fill="none" stroke="#004646" d="M50.59917 73.48932H116.86069"/>
<path transform="matrix(1,0,0,-1,65.906,146.24799)" stroke-width=".59776" stroke-linecap="butt" stroke-miterlimit="10" stroke-linejoin="miter" fill="none" stroke="#404040" d="M0 32.52834H66.26149L116.86069 73.48932H50.59917Z"/>
<path transform="matrix(1,0,0,-1,65.906,146.24799)" stroke-width=".89664" stroke-linecap="butt" stroke-dasharray="2.98883,2.98883" stroke-miterlimit="10" stroke-linejoin="miter" fill="none" stroke="#ff4040" d="M23.37212 40.72054H63.12903L93.48854 65.29712H53.73164Z"/>
<path transform="matrix(1,0,0,-1,65.906,146.24799)" d="M12.04745 65.05629H25.29974L35.41959 73.24849H22.16727Z" fill="#ebf5f5"/>
<path transform="matrix(1,0,0,-1,65.906,146.24799)" stroke-width=".3985" stroke-linecap="butt" stroke-miterlimit="10" stroke-linejoin="miter" fill="none" stroke="#c6c6c6" d="M12.04745 65.05629H25.29974L35.41959 73.24849H22.16727Z"/>
<path transform="matrix(1,0,0,-1,65.906,146.24799)" d="M25.29974 65.05629H38.55205L48.67189 73.24849H35.41959Z" fill="#e0f0f0"/>
<path transform="matrix(1,0,0,-1,65.906,146.24799)" stroke-width=".3985" stroke-linecap="butt" stroke-miterlimit="10" stroke-linejoin="miter" fill="none" stroke="#c6c6c6" d="M25.29974 65.05629H38.55205L48.67189 73.24849H35.41959Z"/>
<path transform="matrix(1,0,0,-1,65.906,146.24799)" d="M38.55205 65.05629H51.80435L61.9242 73.24849H48.67189Z" fill="#d6ebeb"/>
<path transform="matrix(1,0,0,-1,65.906,146.24799)" stroke-width=".3985" stroke-linecap="butt" stroke-miterlimit="10" stroke-linejoin="miter" fill="none" stroke="#c6c6c6" d="M38.55205 65.05629H51.80435L61.9242 73.24849H48.67189Z"/>
<path transform="matrix(1,0,0,-1,65.906,146.24799)" d="M51.80435 65.05629H65.05664L75.1765 73.24849H61.9242Z" fill="#d1e8e8"/>
<path transform="matrix(1,0,0,-1,65.906,146.24799)" stroke-width=".3985" stroke-linecap="butt" stroke-miterlimit="10" stroke-linejoin="miter" fill="none" stroke="#c6c6c6" d="M51.80435 65.05629H65.05664L75.1765 73.24849H61.9242Z"/>
<path transform="matrix(1,0,0,-1,65.906,146.24799)" d="M65.05664 65.05629H78.30896L88.42879 73.24849H75.1765Z" fill="#e0f0f0"/>
<path transform="matrix(1,0,0,-1,65.906,146.24799)" stroke-width=".3985" stroke-linecap="butt" stroke-miterlimit="10" stroke-linejoin="miter" fill="none" stroke="#c6c6c6" d="M65.05664 65.05629H78.30896L88.42879 73.24849H75.1765Z"/>
<path transform="matrix(1,0,0,-1,65.906,146.24799)" d="M22.16727 73.24849H35.41959L45.53941 81.44069H32.28712Z" fill="#e6f2f2"/>
<path transform="matrix(1,0,0,-1,65.906,146.24799)" stroke-width=".3985" stroke-linecap="butt" stroke-miterlimit="10" stroke-linejoin="miter" fill="none" stroke="#c6c6c6" d="M22.16727 73.24849H35.41959L45.53941 81.44069H32.28712Z"/>
<path transform="matrix(1,0,0,-1,65.906,146.24799)" d="M35.41959 73.24849H48.67189L58.79172 81.44069H45.53941Z" fill="#d1e8e8"/>
<path transform="matrix(1,0,0,-1,65.906,146.24799)" stroke-width=".3985" stroke-linecap="butt" stroke-miterlimit="10" stroke-linejoin="miter" fill="none" stroke="#c6c6c6" d="M35.41959 73.24849H48.67189L58.79172 81.44069H45.53941Z"/>
<path transform="matrix(1,0,0,-1,65.906,146.24799)" d="M48.67189 73.24849H61.9242L72.04402 81.44069H58.79172Z" fill="#b8dbdb"/>
<path transform="matrix(1,0,0,-1,65.906,146.24799)" stroke-width=".3985" stroke-linecap="butt" stroke-miterlimit="10" stroke-linejoin="miter" fill="none" stroke="#c6c6c6" d="M48.67189 73.24849H61.9242L72.04402 81.44069H58.79172Z"/>
<path transform="matrix(1,0,0,-1,65.906,146.24799)" d="M61.9242 73.24849H75.1765L85.29633 81.44069H72.04402Z" fill="#a6d2d2"/>
<path transform="matrix(1,0,0,-1,65.906,146.24799)" stroke-width=".3985" stroke-linecap="butt" stroke-miterlimit="10" stroke-linejoin="miter" fill="none" stroke="#c6c6c6" d="M61.9242 73.24849H75.1765L85.29633 81.44069H72.04402Z"/>
<path transform="matrix(1,0,0,-1,65.906,146.24799)" d="M75.1765 73.24849H88.42879L98.54865 81.44069H85.29633Z" fill="#cce6e6"/>
<path transform="matrix(1,0,0,-1,65.906,146.24799)" stroke-width=".3985" stroke-linecap="butt" stroke-miterlimit="10" stroke-linejoin="miter" fill="none" stroke="#c6c6c6" d="M75.1765 73.24849H88.42879L98.54865 81.44069H85.29633Z"/>
<path transform="matrix(1,0,0,-1,65.906,146.24799)" d="M32.28712 81.44069H45.53941L55.65926 89.63287H42.40697Z" fill="#ebf5f5"/>
<path transform="matrix(1,0,0,-1,65.906,146.24799)" stroke-width=".3985" stroke-linecap="butt" stroke-miterlimit="10" stroke-linejoin="miter" fill="none" stroke="#c6c6c6" d="M32.28712 81.44069H45.53941L55.65926 89.63287H42.40697Z"/>
<path transform="matrix(1,0,0,-1,65.906,146.24799)" d="M45.53941 81.44069H58.79172L68.91156 89.63287H55.65926Z" fill="#d6ebeb"/>
<path transform="matrix(1,0,0,-1,65.906,146.24799)" stroke-width=".3985" stroke-linecap="butt" stroke-miterlimit="10" stroke-linejoin="miter" fill="none" stroke="#c6c6c6" d="M45.53941 81.44069H58.79172L68.91156 89.63287H55.65926Z"/>
<path transform="matrix(1,0,0,-1,65.906,146.24799)" d="M58.79172 81.44069H72.04402L82.16386 89.63287H68.91156Z" fill="#99cccc"/>
<path transform="matrix(1,0,0,-1,65.906,146.24799)" stroke-width=".3985" stroke-linecap="butt" stroke-miterlimit="10" stroke-linejoin="miter" fill="none" stroke="#c6c6c6" d="M58.79172 81.44069H72.04402L82.16386 89.63287H68.91156Z"/>
<path transform="matrix(1,0,0,-1,65.906,146.24799)" d="M72.04402 81.44069H85.29633L95.41617 89.63287H82.16386Z" fill="#b3d9d9"/>
<path transform="matrix(1,0,0,-1,65.906,146.24799)" stroke-width=".3985" stroke-linecap="butt" stroke-miterlimit="10" stroke-linejoin="miter" fill="none" stroke="#c6c6c6" d="M72.04402 81.44069H85.29633L95.41617 89.63287H82.16386Z"/>
<path transform="matrix(1,0,0,-1,65.906,146.24799)" d="M85.29633 81.44069H98.54865L108.66846 89.63287H95.41617Z" fill="#d6ebeb"/>
<path transform="matrix(1,0,0,-1,65.906,146.24799)" stroke-width=".3985" stroke-linecap="butt" stroke-miterlimit="10" stroke-linejoin="miter" fill="none" stroke="#c6c6c6" d="M85.29633 81.44069H98.54865L108.66846 89.63287H95.41617Z"/>
<path transform="matrix(1,0,0,-1,65.906,146.24799)" d="M42.40697 89.63287H55.65926L65.7791 97.82509H52.52681Z" fill="#f0f7f7"/>
<path transform="matrix(1,0,0,-1,65.906,146.24799)" stroke-width=".3985" stroke-linecap="butt" stroke-miterlimit="10" stroke-linejoin="miter" fill="none" stroke="#c6c6c6" d="M42.40697 89.63287H55.65926L65.7791 97.82509H52.52681Z"/>
<path transform="matrix(1,0,0,-1,65.906,146.24799)" d="M55.65926 89.63287H68.91156L79.0314 97.82509H65.7791Z" fill="#e6f2f2"/>
<path transform="matrix(1,0,0,-1,65.906,146.24799)" stroke-width=".3985" stroke-linecap="butt" stroke-miterlimit="10" stroke-linejoin="miter" fill="none" stroke="#c6c6c6" d="M55.65926 89.63287H68.91156L79.0314 97.82509H65.7791Z"/>
<path transform="matrix(1,0,0,-1,65.906,146.24799)" d="M68.91156 89.63287H82.16386L92.2837 97.82509H79.0314Z" fill="#d1e8e8"/>
<path transform="matrix(1,0,0,-1,65.906,146.24799)" stroke-width=".3985" stroke-linecap="butt" stroke-miterlimit="10" stroke-linejoin="miter" fill="none" stroke="#c6c6c6" d="M68.91156 89.63287H82.16386L92.2837 97.82509H79.0314Z"/>
<path transform="matrix(1,0,0,-1,65.906,146.24799)" d="M82.16386 89.63287H95.41617L105.536 97.82509H92.2837Z" fill="#c7e3e3"/>
<path transform="matrix(1,0,0,-1,65.906,146.24799)" stroke-width=".3985" stroke-linecap="butt" stroke-miterlimit="10" stroke-linejoin="miter" fill="none" stroke="#c6c6c6" d="M82.16386 89.63287H95.41617L105.536 97.82509H92.2837Z"/>
<path transform="matrix(1,0,0,-1,65.906,146.24799)" d="M95.41617 89.63287H108.66846L118.78831 97.82509H105.536Z" fill="#e0f0f0"/>
<path transform="matrix(1,0,0,-1,65.906,146.24799)" stroke-width=".3985" stroke-linecap="butt" stroke-miterlimit="10" stroke-linejoin="miter" fill="none" stroke="#c6c6c6" d="M95.41617 89.63287H108.66846L118.78831 97.82509H105.536Z"/>
<path transform="matrix(1,0,0,-1,65.906,146.24799)" d="M52.52681 97.82509H65.7791L75.89894 106.01729H62.64664Z" fill="#f5fafa"/>
<path transform="matrix(1,0,0,-1,65.906,146.24799)" stroke-width=".3985" stroke-linecap="butt" stroke-miterlimit="10" stroke-linejoin="miter" fill="none" stroke="#c6c6c6" d="M52.52681 97.82509H65.7791L75.89894 106.01729H62.64664Z"/>
<path transform="matrix(1,0,0,-1,65.906,146.24799)" d="M65.7791 97.82509H79.0314L89.15125 106.01729H75.89894Z" fill="#ebf5f5"/>
<path transform="matrix(1,0,0,-1,65.906,146.24799)" stroke-width=".3985" stroke-linecap="butt" stroke-miterlimit="10" stroke-linejoin="miter" fill="none" stroke="#c6c6c6" d="M65.7791 97.82509H79.0314L89.15125 106.01729H75.89894Z"/>
<path transform="matrix(1,0,0,-1,65.906,146.24799)" d="M79.0314 97.82509H92.2837L102.40355 106.01729H89.15125Z" fill="#e0f0f0"/>
<path transform="matrix(1,0,0,-1,65.906,146.24799)" stroke-width=".3985" stroke-linecap="butt" stroke-miterlimit="10" stroke-linejoin="miter" fill="none" stroke="#c6c6c6" d="M79.0314 97.82509H92.2837L102.40355 106.01729H89.15125Z"/>
<path transform="matrix(1,0,0,-1,65.906,146.24799)" d="M92.2837 97.82509H105.536L115.65585 106.01729H102.40355Z" fill="#d6ebeb"/>
<path transform="matrix(1,0,0,-1,65.906,146.24799)" stroke-width=".3985" stroke-linecap="butt" stroke-miterlimit="10" stroke-linejoin="miter" fill="none" stroke="#c6c6c6" d="M92.2837 97.82509H105.536L115.65585 106.01729H102.40355Z"/>
<path transform="matrix(1,0,0,-1,65.906,146.24799)" d="M105.536 97.82509H118.78831L128.90814 106.01729H115.65585Z" fill="#e6f2f2"/>
<path transform="matrix(1,0,0,-1,65.906,146.24799)" stroke-width=".3985" stroke-linecap="butt" stroke-miterlimit="10" stroke-linejoin="miter" fill="none" stroke="#c6c6c6" d="M105.536 97.82509H118.78831L128.90814 106.01729H115.65585Z"/>
<path transform="matrix(1,0,0,-1,65.906,146.24799)" stroke-width=".3487" stroke-linecap="butt" stroke-miterlimit="10" stroke-linejoin="miter" fill="none" stroke="#004646" d="M12.04745 65.05629 62.64664 106.01729"/>
<path transform="matrix(1,0,0,-1,65.906,146.24799)" stroke-width=".3487" stroke-linecap="butt" stroke-miterlimit="10" stroke-linejoin="miter" fill="none" stroke="#004646" d="M25.29974 65.05629 75.89894 106.01729"/>
<path transform="matrix(1,0,0,-1,65.906,146.24799)" stroke-width=".3487" stroke-linecap="butt" stroke-miterlimit="10" stroke-linejoin="miter" fill="none" stroke="#004646" d="M38.55205 65.05629 89.15125 106.01729"/>
<path transform="matrix(1,0,0,-1,65.906,146.24799)" stroke-width=".3487" stroke-linecap="butt" stroke-miterlimit="10" stroke-linejoin="miter" fill="none" stroke="#004646" d="M51.80435 65.05629 102.40355 106.01729"/>
<path transform="matrix(1,0,0,-1,65.906,146.24799)" stroke-width=".3487" stroke-linecap="butt" stroke-miterlimit="10" stroke-linejoin="miter" fill="none" stroke="#004646" d="M65.05664 65.05629 115.65585 106.01729"/>
<path transform="matrix(1,0,0,-1,65.906,146.24799)" stroke-width=".3487" stroke-linecap="butt" stroke-miterlimit="10" stroke-linejoin="miter" fill="none" stroke="#004646" d="M78.30896 65.05629 128.90814 106.01729"/>
<path transform="matrix(1,0,0,-1,65.906,146.24799)" stroke-width=".3487" stroke-linecap="butt" stroke-miterlimit="10" stroke-linejoin="miter" fill="none" stroke="#004646" d="M12.04745 65.05629H78.30896"/>
<path transform="matrix(1,0,0,-1,65.906,146.24799)" stroke-width=".3487" stroke-linecap="butt" stroke-miterlimit="10" stroke-linejoin="miter" fill="none" stroke="#004646" d="M22.16727 73.24849H88.42879"/>
<path transform="matrix(1,0,0,-1,65.906,146.24799)" stroke-width=".3487" stroke-linecap="butt" stroke-miterlimit="10" stroke-linejoin="miter" fill="none" stroke="#004646" d="M32.28712 81.44069H98.54865"/>
<path transform="matrix(1,0,0,-1,65.906,146.24799)" stroke-width=".3487" stroke-linecap="butt" stroke-miterlimit="10" stroke-linejoin="miter" fill="none" stroke="#004646" d="M42.40697 89.63287H108.66846"/>
<path transform="matrix(1,0,0,-1,65.906,146.24799)" stroke-width=".3487" stroke-linecap="butt" stroke-miterlimit="10" stroke-linejoin="miter" fill="none" stroke="#004646" d="M52.52681 97.82509H118.78831"/>
<path transform="matrix(1,0,0,-1,65.906,146.24799)" stroke-width=".3487" stroke-linecap="butt" stroke-miterlimit="10" stroke-linejoin="miter" fill="none" stroke="#004646" d="M62.64664 106.01729H128.90814"/>
<path transform="matrix(1,0,0,-1,65.906,146.24799)" stroke-width=".59776" stroke-linecap="butt" stroke-miterlimit="10" stroke-linejoin="miter" fill="none" stroke="#404040" d="M12.04745 65.05629H78.30896L128.90814 106.01729H62.64664Z"/>
<path transform="matrix(1,0,0,-1,65.906,146.24799)" stroke-width=".89664" stroke-linecap="butt" stroke-dasharray="2.98883,2.98883" stroke-miterlimit="10" stroke-linejoin="miter" fill="none" stroke="#ff4040" d="M35.41959 73.24849H75.1765L105.536 97.82509H65.7791Z"/>
<path transform="matrix(1,0,0,-1,65.906,146.24799)" stroke-width=".79701" stroke-linecap="butt" stroke-miterlimit="10" stroke-linejoin="miter" fill="none" stroke="#bfbfbf" d="M-36.14165-7.22838H-.17984"/>
<path transform="matrix(1,0,0,-1,65.72616,153.47637)" d="M2.59026 0-1.55415 2.0722 0 0-1.55415-2.0722" fill="#bfbfbf"/>
<path transform="matrix(1,0,0,-1,65.906,146.24799)" stroke-width=".79701" stroke-linecap="butt" stroke-miterlimit="10" stroke-linejoin="miter" fill="none" stroke="#bfbfbf" d="M-36.14165-7.22838-15.28447 9.23785"/>
<path transform="matrix(.78485,-.61961,-.61961,-.78485,50.621519,137.01015)" d="M2.59026 0-1.55415 2.0722 0 0-1.55415-2.0722" fill="#bfbfbf"/>
<text fill="#8c8c8c" xml:space="preserve" transform="matrix(.85 0 -0 .85 1.6427994 178.00815)" font-size="6.9738" font-family="Computer Modern"><tspan y="-22.339" x="10.952 14.111132 18.5116 22.486668 26.029358">space</tspan></text>
<path transform="matrix(1,0,0,-1,65.906,146.24799)" stroke-width=".49814" stroke-linecap="butt" stroke-dasharray="2.98883,2.98883" stroke-miterlimit="10" stroke-linejoin="miter" fill="none" stroke="#737373" d="M-12.04745 0 0 32.52834 12.04745 65.05629"/>
<path transform="matrix(1,0,0,-1,65.906,146.24799)" stroke-width=".49814" stroke-linecap="butt" stroke-dasharray="2.98883,2.98883" stroke-miterlimit="10" stroke-linejoin="miter" fill="none" stroke="#737373" d="M54.21402 0 66.26149 32.52834 78.30898 65.05629"/>
<path transform="matrix(1,0,0,-1,65.906,146.24799)" stroke-width=".49814" stroke-linecap="butt" stroke-dasharray="2.98883,2.98883" stroke-miterlimit="10" stroke-linejoin="miter" fill="none" stroke="#737373" d="M104.81322 40.96098 116.86069 73.48932 128.90818 106.0173"/>
<path transform="matrix(1,0,0,-1,65.906,146.24799)" d="M66.30461 50.9595C66.30461 52.41478 65.1249 53.59451 63.6696 53.59451 62.21431 53.59451 61.03459 52.41478 61.03459 50.9595 61.03459 49.50421 62.21431 48.3245 63.6696 48.3245 65.1249 48.3245 66.30461 49.50421 66.30461 50.9595ZM63.6696 50.9595" fill="#ff3333"/>
<path transform="matrix(1,0,0,-1,65.906,146.24799)" stroke-width=".3985" stroke-linecap="butt" stroke-miterlimit="10" stroke-linejoin="miter" fill="none" stroke="#e60000" d="M66.30461 50.9595C66.30461 52.41478 65.1249 53.59451 63.6696 53.59451 62.21431 53.59451 61.03459 52.41478 61.03459 50.9595 61.03459 49.50421 62.21431 48.3245 63.6696 48.3245 65.1249 48.3245 66.30461 49.50421 66.30461 50.9595ZM63.6696 50.9595"/>
<text fill="#cc0000" xml:space="preserve" transform="matrix(.85 0 -0 .85 20.266045 168.5535)" font-size="6.9738" font-family="Computer Modern"><tspan y="-85.37" x="135.107 139.08206 143.05713 147.4576 151.43267">gauge</tspan></text>
<path transform="matrix(1,0,0,-1,65.906,146.24799)" stroke-width=".79701" stroke-linecap="butt" stroke-miterlimit="10" stroke-linejoin="miter" fill="none" stroke="#000000" d="M-36.14243 0V107.04187"/>
<path transform="matrix(0,-1,-1,-0,29.763569,39.206117)" d="M2.59026 0-1.55415 2.0722 0 0-1.55415-2.0722"/>
<text xml:space="preserve" transform="matrix(0 -.85 .85 0 85.65505 130.29564)" font-size="6.9738" font-family="Computer Modern"><tspan y="-71.913" x="24.529 27.639315 29.891852 36.44025">time</tspan></text>
<text xml:space="preserve" transform="matrix(.85 0 -0 .85 4.9009459 176.1675)" font-size="6.9738" font-family="Computer Modern" font-style="italic"><tspan y="-34.61" x="32.673">t</tspan></text>
<text xml:space="preserve" transform="matrix(.85 0 -0 .85 4.9009459 176.1675)" font-size="6.9738" font-family="Computer Modern" font-style="italic"><tspan y="-34.61" x="37.497">&#x2212;</tspan></text>
<text xml:space="preserve" transform="matrix(.85 0 -0 .85 4.9009459 176.1675)" font-size="6.9738" font-family="Computer Modern"><tspan y="-34.61" x="45.538003">1</tspan></text>
<text xml:space="preserve" transform="matrix(.85 0 -0 .85 4.9009459 176.1675)" font-size="6.9738" font-family="Computer Modern" font-style="italic"><tspan y="-34.61" x="49.509004">h</tspan></text>
<text xml:space="preserve" transform="matrix(.85 0 -0 .85 4.81485 171.30599)" font-size="6.9738" font-family="Computer Modern" font-style="italic"><tspan y="-67.02" x="32.099">t</tspan></text>
<text xml:space="preserve" transform="matrix(.85 0 -0 .85 4.907995 166.40909)" font-size="6.9738" font-family="Computer Modern" font-style="italic"><tspan y="-99.666" x="32.72">t</tspan></text>
<text xml:space="preserve" transform="matrix(.85 0 -0 .85 4.907995 166.40909)" font-size="6.9738" font-family="Computer Modern"><tspan y="-99.666" x="37.544004 45.473215">+1</tspan></text>
<text xml:space="preserve" transform="matrix(.85 0 -0 .85 4.907995 166.40909)" font-size="6.9738" font-family="Computer Modern" font-style="italic"><tspan y="-99.666" x="49.445005">h</tspan></text>
<text xml:space="preserve" transform="matrix(.85 0 -0 .85 11.1418499 179.172)" font-size="6.9738" font-family="Computer Modern"><tspan y="-22.55" x="92.326 95.48513 99.8856 103.860668 106.97098 109.22352 113.198589 118.13604 122.53651 126.0792 128.33174 132.30681 136.49109 141.10774 145.08281 149.48328 152.5936 156.99407 161.17835 165.3696">spatialneighbourhood</tspan><tspan y="-14.58" x="74.27899 77.389308 80.932 85.54865 89.09135 93.066417 96.17673 99.71942 106.8048 110.77987">repeatedat</tspan></text>
<text xml:space="preserve" transform="matrix(.85 0 -0 .85 11.1418499 179.172)" font-size="6.9738" font-family="Computer Modern" font-style="italic"><tspan y="-14.58" x="116.57199">t</tspan></text>
<text xml:space="preserve" transform="matrix(.85 0 -0 .85 11.1418499 179.172)" font-size="6.9738" font-family="Computer Modern" font-style="italic"><tspan y="-14.58" x="121.39499">&#x2212;</tspan></text>
<text xml:space="preserve" transform="matrix(.85 0 -0 .85 11.1418499 179.172)" font-size="6.9738" font-family="Computer Modern"><tspan y="-14.58" x="129.43599">1</tspan></text>
<text xml:space="preserve" transform="matrix(.85 0 -0 .85 11.1418499 179.172)" font-size="6.9738" font-family="Computer Modern" font-style="italic"><tspan y="-14.58" x="133.40699">h</tspan></text>
<text xml:space="preserve" transform="matrix(.85 0 -0 .85 11.1418499 179.172)" font-size="6.9738" font-family="Computer Modern"><tspan y="-14.58" x="138.07198">,</tspan></text>
<text xml:space="preserve" transform="matrix(.85 0 -0 .85 11.1418499 179.172)" font-size="6.9738" font-family="Computer Modern" font-style="italic"><tspan y="-14.58" x="143.01097">t</tspan></text>
<text xml:space="preserve" transform="matrix(.85 0 -0 .85 11.1418499 179.172)" font-size="6.9738" font-family="Computer Modern"><tspan y="-14.58" x="146.02097 150.9584 154.93347 159.33394">,and</tspan></text>
<text xml:space="preserve" transform="matrix(.85 0 -0 .85 11.1418499 179.172)" font-size="6.9738" font-family="Computer Modern" font-style="italic"><tspan y="-14.58" x="166.41696">t</tspan></text>
<text xml:space="preserve" transform="matrix(.85 0 -0 .85 11.1418499 179.172)" font-size="6.9738" font-family="Computer Modern"><tspan y="-14.58" x="171.24097 179.17018">+1</tspan></text>
<text xml:space="preserve" transform="matrix(.85 0 -0 .85 11.1418499 179.172)" font-size="6.9738" font-family="Computer Modern" font-style="italic"><tspan y="-14.58" x="183.14197">h</tspan></text>
<path transform="matrix(1,0,0,-1,65.906,146.24799)" d="M218.90326 58.48111H132.88327C130.68233 58.48111 128.89817 56.69695 128.89817 54.496V25.01704C128.89817 22.8161 130.68233 21.03194 132.88327 21.03194H218.90326C221.1042 21.03194 222.88837 22.8161 222.88837 25.01704V54.496C222.88837 56.69695 221.1042 58.48111 218.90326 58.48111ZM128.89817 21.03194" fill="#f5f5f5"/>
<path transform="matrix(1,0,0,-1,65.906,146.24799)" stroke-width=".3985" stroke-linecap="butt" stroke-miterlimit="10" stroke-linejoin="miter" fill="none" stroke="#4c4d4c" d="M218.90326 58.48111H132.88327C130.68233 58.48111 128.89817 56.69695 128.89817 54.496V25.01704C128.89817 22.8161 130.68233 21.03194 132.88327 21.03194H218.90326C221.1042 21.03194 222.88837 22.8161 222.88837 25.01704V54.496C222.88837 56.69695 221.1042 58.48111 218.90326 58.48111ZM128.89817 21.03194"/>
<text xml:space="preserve" transform="matrix(.85 0 -0 .85 29.982438 171.92488)" font-size="8.9664" font-family="Computer Modern"><tspan y="-86.804" x="221.063 228.10163 230.66602 234.29741 237.88397 241.48847 244.05286 249.17267 254.29248 257.87904 260.44343 265.05216 270.17198 274.7807">Distributional</tspan><tspan y="-75.845" x="211.28 216.39981 220.74852 227.4016 232.52141 236.1528 240.25045 244.85918 247.42357 249.98796 255.10778 262.79197 270.47618 275.33598 280.45579 284.55345">downscalingmodel</tspan></text>
<text xml:space="preserve" transform="matrix(.85 0 -0 .85 29.982438 171.92488)" font-size="6.9738" font-family="Computer Modern"><tspan y="-62.894" x="199.883 203.85807 207.83313 212.2336 216.20867">gauge</tspan></text>
<text xml:space="preserve" transform="matrix(.85 0 -0 .85 29.982438 171.92488)" font-size="6.9738" font-family="Computer Modern" font-weight="bold" font-style="italic"><tspan y="-62.894" x="222.424">s</tspan></text>
<text xml:space="preserve" transform="matrix(.85 0 -0 .85 29.982438 171.92488)" font-size="6.9738" font-family="Computer Modern"><tspan y="-62.894" x="229.26 233.23506 239.03029 242.14061 244.39315 250.94155">attime</tspan></text>
<text xml:space="preserve" transform="matrix(.85 0 -0 .85 29.982438 171.92488)" font-size="6.9738" font-family="Computer Modern" font-style="italic"><tspan y="-62.894" x="257.169">t</tspan></text>
<text xml:space="preserve" transform="matrix(.85 0 -0 .85 29.982438 171.92488)" font-size="6.9738" font-family="Computer Modern"><tspan y="-62.894" x="262.863 266.83808 269.0906 273.05873 276.6014">given</tspan></text>
<text xml:space="preserve" transform="matrix(.85 0 -0 .85 29.982438 171.92488)" font-size="6.9738" font-family="Computer Modern" font-style="italic"><tspan y="-62.894" x="283.68803">C</tspan></text>
<text xml:space="preserve" transform="matrix(.85 0 -0 .85 29.982438 171.92488)" font-size="4.9813" font-family="Computer Modern" font-weight="bold" font-style="italic"><tspan y="-61.897" x="289.402">s</tspan></text>
<text xml:space="preserve" transform="matrix(.85 0 -0 .85 29.982438 171.92488)" font-size="4.9813" font-family="Computer Modern" font-style="italic"><tspan y="-61.897" x="292.913 295.19444">,t</tspan></text>
<path transform="matrix(1,0,0,-1,65.906,146.24799)" stroke-width=".79701" stroke-linecap="butt" stroke-miterlimit="10" stroke-linejoin="miter" fill="none" stroke="#404040" d="M107.22247 39.75652 126.1358 39.75566"/>
<path transform="matrix(1,0,0,-1,192.04181,106.492328)" d="M2.59026 0-1.55415 2.0722 0 0-1.55415-2.0722" fill="#404040"/>
<text xml:space="preserve" transform="matrix(.85 0 -0 .85 27.951905 175.19638)" font-size="6.9738" font-family="Computer Modern"><tspan y="-49.054" x="202.127 204.37953 207.92223 211.8973 215.00762 219.40808 225.25212 228.36244 232.76291 238.99051 242.5332 246.50827 250.90874 255.3092 257.56175 260.67207 262.9246 266.89967 271.30015 275.2752 280.21266 282.46519 286.22407 294.59959 298.57466">learnstheconditionallawof</tspan><tspan y="-41.084" x="186.346 188.59853 192.78978 196.33248 200.30754 205.24498 208.3553 212.33037 214.5829 218.98337 221.45209 225.42716 227.67969 232.61016 236.58522 238.83776 242.81282 246.35552 253.44089 257.41596 260.52629 262.7788 267.1793 271.57978 275.12248 282.2009 286.60139 289.7117 293.26139 297.65489 299.9074 303.4571 306.5674 310.54249 313.6528">localrainfallgivengriddedpredictors</tspan></text>
<text xml:space="preserve" transform="matrix(.85 0 -0 .85 47.00006 164.06444)" font-size="9.9626" font-family="Computer Modern" font-weight="bold"><tspan y="-115.297" x="313.334 321.9417 332.82087 339.18696 346.7187 359.19187 363.91413 369.48323 372.6613 379.02738 382.52427 388.09336 391.27143">OMSEVrainfall</tspan></text>
<text xml:space="preserve" transform="matrix(.85 0 -0 .85 48.328035 165.10094)" font-size="6.9738" font-family="Computer Modern"><tspan y="-108.387" x="322.187 326.16209 330.13716 334.53764 338.5127">gauge</tspan></text>
<text xml:space="preserve" transform="matrix(.85 0 -0 .85 48.328035 165.10094)" font-size="6.9738" font-family="Computer Modern" font-weight="bold" font-style="italic"><tspan y="-108.387" x="344.72804">s</tspan></text>
<text xml:space="preserve" transform="matrix(.85 0 -0 .85 48.328035 165.10094)" font-size="6.9738" font-family="Computer Modern"><tspan y="-108.387" x="351.56404 355.5391 361.33433 364.44465 366.69718 373.24559">attime</tspan></text>
<text xml:space="preserve" transform="matrix(.85 0 -0 .85 48.328035 165.10094)" font-size="6.9738" font-family="Computer Modern" font-style="italic"><tspan y="-108.387" x="379.47303">t</tspan></text>
<path transform="matrix(1,0,0,-1,65.906,146.24799)" stroke-width=".79701" stroke-linecap="butt" stroke-miterlimit="10" stroke-linejoin="miter" fill="none" stroke="#404040" d="M223.05303 39.75566 240.76897 39.75652"/>
<path transform="matrix(1,0,0,-1,306.67497,106.49147)" d="M2.59026 0-1.55415 2.0722 0 0-1.55415-2.0722" fill="#404040"/>
<path transform="matrix(1,0,0,-1,65.906,146.24799)" stroke-width=".79701" stroke-linecap="butt" stroke-miterlimit="10" stroke-linejoin="miter" fill="none" stroke="#404040" d="M263.83976 46.98508C263.83976 46.98508 265.02507 39.68742 265.52656 37.34724 266.02806 35.00708 266.7856 31.89052 267.45423 30.11868 268.1228 28.34683 269.3426 25.88075 270.34547 24.57693 271.34837 23.27313 273.07774 21.55745 274.6824 20.72168 276.28709 19.88588 279.5707 18.92094 281.91096 18.5532 284.25117 18.18546 288.20606 18.13806 291.54917 18.07121 294.8923 18.00433 306.0059 18.07121 306.0059 18.07121"/>
<path transform="matrix(1,0,0,-1,65.906,146.24799)" stroke-width=".3985" stroke-linecap="butt" stroke-miterlimit="10" stroke-linejoin="miter" fill="none" stroke="#666666" d="M261.43046 16.86638H310.03715"/>
<path transform="matrix(1,0,0,-1,375.94316,129.3816)" d="M1.99252 0-1.19551 1.59401 0 0-1.19551-1.59401" fill="#666666"/>
<path transform="matrix(1,0,0,-1,65.906,146.24799)" stroke-width=".3985" stroke-linecap="butt" stroke-miterlimit="10" stroke-linejoin="miter" fill="none" stroke="#666666" d="M261.43046 16.86638V47.40219"/>
<path transform="matrix(0,-1,-1,-0,327.33647,98.845798)" d="M1.99252 0-1.19551 1.59401 0 0-1.19551-1.59401" fill="#666666"/>
<text xml:space="preserve" transform="matrix(.85 0 -0 .85 49.48004 175.49759)" font-size="6.9738" font-family="Computer Modern"><tspan y="-39.076" x="329.867 332.97734 336.9524 339.20494 343.6054 346.07414 350.0492 352.30174 357.23918 361.21424 367.76264 371.7377 376.13819 380.32249">rainfallamount</tspan></text>
<text fill="#cc0000" xml:space="preserve" transform="matrix(.85 0 -0 .85 51.62549 168.34934)" font-size="6.9738" font-family="Computer Modern" font-style="italic"><tspan y="-86.731" x="344.17">F</tspan></text>
<text fill="#cc0000" xml:space="preserve" transform="matrix(.85 0 -0 .85 51.62549 168.34934)" font-size="4.9813" font-family="Computer Modern" font-weight="bold" font-style="italic"><tspan y="-85.735" x="349.22203">s</tspan></text>
<text fill="#cc0000" xml:space="preserve" transform="matrix(.85 0 -0 .85 51.62549 168.34934)" font-size="4.9813" font-family="Computer Modern" font-style="italic"><tspan y="-85.735" x="352.733 355.01445">,t</tspan></text>
<text fill="#cc0000" xml:space="preserve" transform="matrix(.85 0 -0 .85 51.62549 168.34934)" font-size="6.9738" font-family="Computer Modern"><tspan y="-86.731" x="358.322">(</tspan></text>
<text fill="#cc0000" xml:space="preserve" transform="matrix(.85 0 -0 .85 51.62549 168.34934)" font-size="6.9738" font-family="Computer Modern" font-style="italic"><tspan y="-86.731" x="361.436">.</tspan></text>
<text fill="#cc0000" xml:space="preserve" transform="matrix(.85 0 -0 .85 51.62549 168.34934)" font-size="6.9738" font-family="Computer Modern"><tspan y="-86.731" x="363.802">)</tspan></text>
<text xml:space="preserve" transform="matrix(.85 0 -0 .85 47.31195 177.30464)" font-size="6.9738" font-family="Computer Modern"><tspan y="-27.029" x="315.413 318.9557 322.93077 327.33125 331.73173 333.98426 337.09458 339.3471 343.32218 347.72267 351.69773 356.63517 361.03565 363.28819 366.4473 369.55763 372.66795 374.92048 379.32096 383.72145 386.83177 389.0843 393.05937">conditionaldistribution</tspan></text>
</svg>
